<?xml version="1.0" encoding="UTF-8"?>
<svg id="a" data-name="Layer 1" xmlns="http://www.w3.org/2000/svg" viewBox="0 0 283.46 283.46">
  <defs>
    <style>
      .c {
        fill: #372f4a;
      }

      .d {
        fill: #3f2e2e;
      }

      .e {
        fill: #4b3128;
      }

      .f {
        fill: none;
      }

      .g {
        fill: #d4d0d0;
      }

      .h {
        fill: #38304f;
      }

      .i {
        fill: #d1ccc7;
      }

      .j {
        fill: #f9f6ef;
      }

      .k {
        fill: #352d48;
      }

      .l {
        fill: #393151;
      }

      .m {
        fill: #372b2a;
      }

      .n {
        fill: #776799;
      }

      .o {
        fill: #4c3228;
      }
    </style>
  </defs>
  <path class="f" d="M13.77,174.7c.6,6.15,16.56,48.64,24.69,46.01-.61-3.86-.07-8.11-.49-12.22-8.61-54.23,16.91-116.95,75.2-127.59,8.37-1.93,12.5,3.31,19.38,6.56,12.65,6.82,22.76-5.09,34.32-6.91,65.86,8.16,88.68,82.75,78.04,140.63,12.16-1.47,25.49-45.43,26.85-56.45C297.74-48.66-28.67-32.33,13.77,174.7ZM119.29,59.9c-1.93-13.49,10.77-34.11,25.41-28.23-10.62,20.58,4.07,27.35-3.7,45.63-9.78,13.81-22.02-7.34-21.71-17.41ZM159.43,74.62c-5.61,9.18-24.85,16.5-14.73-1.72,3.67-9.49-3.08-18.39-2.84-27.82,6.98-31.9,34.13,9.2,17.57,29.54Z"/>
  <path class="l" d="M141.63,2.08c-177.49.72-184.99,267.26-9.08,279.01C320.71,291.9,330.42,3.6,141.63,2.08ZM244.92,221.18c-.18,1-.38,1.99-.58,2.98-47.42,65.95-156.94,66.38-204.64.6-.64-1.28-1.01-2.64-1.23-4.05-8.13,2.63-24.09-39.86-24.69-46.01C-28.67-32.33,297.74-48.66,271.77,164.73c-1.36,11.02-14.7,54.99-26.85,56.45Z"/>
  <path class="e" d="M144.69,31.68c-14.64-5.88-27.34,14.74-25.41,28.23-.31,10.07,11.93,31.22,21.71,17.41,7.77-18.28-6.92-25.05,3.7-45.63Z"/>
  <path class="o" d="M141.86,45.08c-.24,9.44,6.51,18.34,2.84,27.82-10.12,18.21,9.12,10.9,14.73,1.72,16.56-20.34-10.59-61.44-17.57-29.54Z"/>
  <path class="n" d="M166.88,80.55c-11.56,1.82-21.67,13.73-34.32,6.91-6.89-3.24-11.01-8.48-19.38-6.56-58.28,10.64-83.8,73.36-75.2,127.59.42,4.11-.12,8.36.49,12.22.15-.05.3-.11.45-.19-1.71-56.76,8.4-120.77,71.75-136.04,14.42-3.7,22.66,12.79,37.53,7.24,9.74-2.4,13.42-10.33,24.76-7.16,64.63,15.86,73.23,81.05,71.48,136.67.16,0,.33-.02.49-.04,10.65-57.88-12.18-132.46-78.04-140.63Z"/>
  <path class="n" d="M172.95,84.55c-11.34-3.17-15.02,4.76-24.76,7.16-14.86,5.55-23.1-10.94-37.53-7.24-63.35,15.27-73.46,79.28-71.75,136.04-.15.08-.3.14-.45.19.22,1.41.6,2.78,1.23,4.05,47.7,65.78,157.22,65.35,204.64-.6.2-.99.4-1.98.58-2.98-.16.02-.33.04-.49.04,1.75-55.62-6.85-120.81-71.48-136.67ZM225.55,180.56c1.09,4.99-1.38,23.75-8.75,22.26-.28,7.92-11.16,17.3-20.17,23.05-38.22,22.99-112.16,20.11-129.78-23.84-.59.19-1.17.32-1.75.34-8.67-7.8-9.06-16.71-4.95-24.92-6.82-3.77,1.89-50.54,42.35-58.22,13.8-4.06,26.58,2.08,39.35,5.7,11.43-2.8,22.72-9.26,35.15-6.42,26.51,3.07,54.9,31.63,47.9,58.88-.13.06-.26.1-.38.14.45,1.01.8,2.02,1.04,3.02Z"/>
  <path class="j" d="M176.99,118.51c-12.43-2.84-23.72,3.63-35.15,6.42-12.77-3.62-25.55-9.76-39.35-5.7-40.46,7.68-49.17,54.45-42.35,58.22,9.58-19.13,43.67-34.45,54.79-23.01,7.24,5.62,5.49,17.3.6,24.11-7.97,11.66-24.43,10.65-37.41,16.92-3.94,1.46-7.72,5.37-11.28,6.55,17.61,43.96,91.56,46.84,129.78,23.84,9.01-5.75,19.9-15.13,20.17-23.05-.43-.09-.88-.23-1.34-.47-17.84-15.48-47.69-8.44-51.76-33.35-1.12-35.52,51.41-12.72,60.81,8.53.13-.04.26-.08.38-.14,7-27.25-21.38-55.82-47.9-58.88ZM125.44,181.09c7.9-14.19,44.86-4.94,28.83,12.47-3.14,2.9-7.47,4.47-11.65,4.68-9.04.9-21.66-7.04-17.18-17.16ZM171.06,198.83c6.91,4.75-19.76,19.46-40.37,13.68-6.4-1.83-14.4-4.5-17.81-9.95-1.31-2.13-1.27-5.8,1.55-3.59,12.07,10.15,37.83,13.17,56.64-.14Z"/>
  <path class="k" d="M142.62,198.24c4.18-.21,8.51-1.78,11.65-4.68,16.02-17.41-20.93-26.66-28.83-12.47-4.48,10.12,8.14,18.05,17.18,17.16Z"/>
  <path class="c" d="M114.42,198.97c-2.82-2.2-2.86,1.46-1.55,3.59,3.41,5.45,11.41,8.12,17.81,9.95,20.61,5.78,47.28-8.93,40.37-13.68-18.81,13.32-44.57,10.3-56.64.14Z"/>
  <path class="h" d="M217.46,173.05c-11.94-17.76-62.42-28.83-46.87,2.17,7.31,10.19,21.4,11.26,32.4,15.98,10.28,2.6,13.96,6.85,13.8,11.62,7.38,1.49,9.84-17.27,8.75-22.26-.24-1-.59-2.01-1.04-3.02-2.49.76-5.13-2.68-7.04-4.49ZM186.55,179.01c-8.99,2.52-13.93-11.74-4.94-15.11,10.99-4.39,15.09,11.37,4.94,15.11Z"/>
  <path class="h" d="M163.69,169.01c4.07,24.9,33.92,17.87,51.76,33.35.47.23.91.38,1.34.47.17-4.77-3.52-9.02-13.8-11.62-11-4.71-25.1-5.79-32.4-15.98-15.55-31,34.93-19.93,46.87-2.17,1.91,1.81,4.55,5.24,7.04,4.49-9.4-21.25-61.93-44.05-60.81-8.53Z"/>
  <path class="i" d="M181.61,163.9c-8.99,3.37-4.05,17.62,4.94,15.11,10.15-3.73,6.05-19.5-4.94-15.11ZM184.78,176.96c-7.09.08-8.89-9.9-1.62-11.43,9.02-1.77,10.24,10.67,1.62,11.43Z"/>
  <path class="d" d="M183.16,165.53c-7.28,1.53-5.47,11.51,1.62,11.43,8.62-.76,7.4-13.2-1.62-11.43Z"/>
  <path class="l" d="M115.73,163.06c-5.39-16.93-42.87-2.4-52.23,13.56-1.35,1.1-2.48,1.32-3.35.83-4.11,8.21-3.71,17.12,4.95,24.92.58-.02,1.16-.15,1.75-.34-.21-.53-.43-1.07-.63-1.62,10.91-17.58,51.29-9.6,49.5-37.35ZM106.76,171.2c-.14,9.1-13.08,10.97-15.75,2.25-2.94-12.04,15.23-14.52,15.75-2.25Z"/>
  <path class="l" d="M115.54,178.56c4.89-6.81,6.64-18.49-.6-24.11-11.12-11.44-45.21,3.88-54.79,23.01.87.48,2,.27,3.35-.83,9.36-15.95,46.84-30.49,52.23-13.56,1.78,27.75-38.59,19.77-49.5,37.35.2.55.41,1.08.63,1.62,3.56-1.18,7.34-5.09,11.28-6.55,12.98-6.27,29.44-5.26,37.41-16.92Z"/>
  <path class="g" d="M106.76,171.2c-.51-12.26-18.69-9.79-15.75,2.25,2.67,8.71,15.61,6.85,15.75-2.25ZM96.76,165.54c6.86-2.91,11.63,6.79,5.43,10.63-7.4,3.95-13.12-7.09-5.43-10.63Z"/>
  <path class="m" d="M102.19,176.17c6.2-3.84,1.43-13.54-5.43-10.63-7.69,3.54-1.97,14.58,5.43,10.63Z"/>
</svg>